<svg xmlns="http://www.w3.org/2000/svg" width="8" height="8" viewBox="0 0 8 8" shape-rendering="crispEdges" role="img" aria-label="Coin zıplamanın en tepesinde">
  <rect x="2" y="0" width="4" height="1" fill="#e3ab52"/>
  <rect x="1" y="1" width="1" height="1" fill="#e3ab52"/>
  <rect x="2" y="1" width="1" height="1" fill="#9e6537"/>
  <rect x="3" y="1" width="1" height="1" fill="#ffe5a3"/>
  <rect x="4" y="1" width="2" height="1" fill="#9e6537"/>
  <rect x="6" y="1" width="1" height="1" fill="#e3ab52"/>
  <rect x="1" y="2" width="1" height="1" fill="#e3ab52"/>
  <rect x="2" y="2" width="1" height="1" fill="#9e6537"/>
  <rect x="3" y="2" width="1" height="1" fill="#ffe5a3"/>
  <rect x="4" y="2" width="2" height="1" fill="#9e6537"/>
  <rect x="6" y="2" width="1" height="1" fill="#e3ab52"/>
  <rect x="1" y="3" width="1" height="1" fill="#e3ab52"/>
  <rect x="2" y="3" width="1" height="1" fill="#9e6537"/>
  <rect x="3" y="3" width="1" height="1" fill="#ffe5a3"/>
  <rect x="4" y="3" width="2" height="1" fill="#9e6537"/>
  <rect x="6" y="3" width="1" height="1" fill="#e3ab52"/>
  <rect x="1" y="4" width="1" height="1" fill="#e3ab52"/>
  <rect x="2" y="4" width="1" height="1" fill="#9e6537"/>
  <rect x="3" y="4" width="1" height="1" fill="#ffe5a3"/>
  <rect x="4" y="4" width="2" height="1" fill="#9e6537"/>
  <rect x="6" y="4" width="1" height="1" fill="#e3ab52"/>
  <rect x="2" y="5" width="4" height="1" fill="#e3ab52"/>
</svg>
