<svg xmlns="http://www.w3.org/2000/svg" width="8" height="8" viewBox="0 0 8 8" shape-rendering="crispEdges" role="img" aria-label="Aynı warrior, alev uçları yer değiştirmiş">
  <rect x="3" y="0" width="1" height="1" fill="#e3ab52"/>
  <rect x="2" y="1" width="1" height="1" fill="#e3ab52"/>
  <rect x="3" y="1" width="2" height="1" fill="#c8a66b"/>
  <rect x="5" y="1" width="1" height="1" fill="#e3ab52"/>
  <rect x="1" y="2" width="5" height="1" fill="#c8a66b"/>
  <rect x="1" y="3" width="1" height="1" fill="#c8a66b"/>
  <rect x="2" y="3" width="3" height="1" fill="#f2c078"/>
  <rect x="5" y="3" width="1" height="1" fill="#c8a66b"/>
  <rect x="2" y="4" width="3" height="1" fill="#c8a66b"/>
  <rect x="5" y="4" width="2" height="1" fill="#8c6847"/>
  <rect x="2" y="5" width="3" height="1" fill="#c8a66b"/>
  <rect x="5" y="5" width="2" height="1" fill="#8c6847"/>
  <rect x="2" y="6" width="3" height="1" fill="#c8a66b"/>
  <rect x="6" y="6" width="1" height="1" fill="#8c6847"/>
  <rect x="2" y="7" width="1" height="1" fill="#8c6847"/>
  <rect x="4" y="7" width="1" height="1" fill="#8c6847"/>
</svg>
