<svg xmlns="http://www.w3.org/2000/svg" width="35" height="8" viewBox="0 0 35 8" shape-rendering="crispEdges" role="img" aria-label="Buff aurası iki karede, kalkan kabuğu iki karede; ikisi de siluete dokunmuyor">
  <rect x="20" y="0" width="3" height="1" fill="#cdf4fb"/>
  <rect x="30" y="0" width="2" height="1" fill="#9de7f5"/>
  <rect x="2" y="1" width="3" height="1" fill="#92afc3"/>
  <rect x="11" y="1" width="3" height="1" fill="#92afc3"/>
  <rect x="19" y="1" width="1" height="1" fill="#cdf4fb"/>
  <rect x="20" y="1" width="3" height="1" fill="#92afc3"/>
  <rect x="23" y="1" width="1" height="1" fill="#cdf4fb"/>
  <rect x="28" y="1" width="1" height="1" fill="#9de7f5"/>
  <rect x="29" y="1" width="3" height="1" fill="#92afc3"/>
  <rect x="1" y="2" width="5" height="1" fill="#92afc3"/>
  <rect x="10" y="2" width="5" height="1" fill="#92afc3"/>
  <rect x="18" y="2" width="1" height="1" fill="#cdf4fb"/>
  <rect x="19" y="2" width="5" height="1" fill="#92afc3"/>
  <rect x="24" y="2" width="1" height="1" fill="#cdf4fb"/>
  <rect x="27" y="2" width="1" height="1" fill="#9de7f5"/>
  <rect x="28" y="2" width="5" height="1" fill="#92afc3"/>
  <rect x="33" y="2" width="1" height="1" fill="#9de7f5"/>
  <rect x="1" y="3" width="1" height="1" fill="#92afc3"/>
  <rect x="2" y="3" width="3" height="1" fill="#f3c68d"/>
  <rect x="5" y="3" width="1" height="1" fill="#92afc3"/>
  <rect x="10" y="3" width="1" height="1" fill="#92afc3"/>
  <rect x="11" y="3" width="3" height="1" fill="#f3c68d"/>
  <rect x="14" y="3" width="1" height="1" fill="#92afc3"/>
  <rect x="18" y="3" width="1" height="1" fill="#cdf4fb"/>
  <rect x="19" y="3" width="1" height="1" fill="#92afc3"/>
  <rect x="20" y="3" width="3" height="1" fill="#f3c68d"/>
  <rect x="23" y="3" width="1" height="1" fill="#92afc3"/>
  <rect x="24" y="3" width="1" height="1" fill="#cdf4fb"/>
  <rect x="28" y="3" width="1" height="1" fill="#92afc3"/>
  <rect x="29" y="3" width="3" height="1" fill="#f3c68d"/>
  <rect x="32" y="3" width="1" height="1" fill="#92afc3"/>
  <rect x="2" y="4" width="3" height="1" fill="#92afc3"/>
  <rect x="5" y="4" width="2" height="1" fill="#626080"/>
  <rect x="11" y="4" width="3" height="1" fill="#92afc3"/>
  <rect x="14" y="4" width="2" height="1" fill="#626080"/>
  <rect x="19" y="4" width="1" height="1" fill="#cdf4fb"/>
  <rect x="20" y="4" width="3" height="1" fill="#92afc3"/>
  <rect x="23" y="4" width="2" height="1" fill="#626080"/>
  <rect x="25" y="4" width="1" height="1" fill="#cdf4fb"/>
  <rect x="29" y="4" width="3" height="1" fill="#92afc3"/>
  <rect x="32" y="4" width="2" height="1" fill="#626080"/>
  <rect x="2" y="5" width="3" height="1" fill="#92afc3"/>
  <rect x="5" y="5" width="2" height="1" fill="#626080"/>
  <rect x="11" y="5" width="3" height="1" fill="#92afc3"/>
  <rect x="14" y="5" width="2" height="1" fill="#626080"/>
  <rect x="19" y="5" width="1" height="1" fill="#cdf4fb"/>
  <rect x="20" y="5" width="3" height="1" fill="#92afc3"/>
  <rect x="23" y="5" width="2" height="1" fill="#626080"/>
  <rect x="25" y="5" width="1" height="1" fill="#cdf4fb"/>
  <rect x="28" y="5" width="1" height="1" fill="#9de7f5"/>
  <rect x="29" y="5" width="3" height="1" fill="#92afc3"/>
  <rect x="32" y="5" width="2" height="1" fill="#626080"/>
  <rect x="34" y="5" width="1" height="1" fill="#9de7f5"/>
  <rect x="2" y="6" width="3" height="1" fill="#92afc3"/>
  <rect x="6" y="6" width="1" height="1" fill="#626080"/>
  <rect x="9" y="6" width="1" height="1" fill="#b7efd0"/>
  <rect x="11" y="6" width="3" height="1" fill="#92afc3"/>
  <rect x="15" y="6" width="1" height="1" fill="#b7efd0"/>
  <rect x="19" y="6" width="1" height="1" fill="#cdf4fb"/>
  <rect x="20" y="6" width="3" height="1" fill="#92afc3"/>
  <rect x="23" y="6" width="1" height="1" fill="#cdf4fb"/>
  <rect x="24" y="6" width="1" height="1" fill="#626080"/>
  <rect x="25" y="6" width="1" height="1" fill="#cdf4fb"/>
  <rect x="29" y="6" width="3" height="1" fill="#92afc3"/>
  <rect x="32" y="6" width="1" height="1" fill="#9de7f5"/>
  <rect x="33" y="6" width="1" height="1" fill="#626080"/>
  <rect x="2" y="7" width="3" height="1" fill="#b7efd0"/>
  <rect x="10" y="7" width="5" height="1" fill="#8ac982"/>
  <rect x="19" y="7" width="1" height="1" fill="#cdf4fb"/>
  <rect x="20" y="7" width="1" height="1" fill="#626080"/>
  <rect x="21" y="7" width="1" height="1" fill="#cdf4fb"/>
  <rect x="22" y="7" width="1" height="1" fill="#626080"/>
  <rect x="23" y="7" width="2" height="1" fill="#cdf4fb"/>
  <rect x="28" y="7" width="1" height="1" fill="#9de7f5"/>
  <rect x="29" y="7" width="1" height="1" fill="#626080"/>
  <rect x="31" y="7" width="1" height="1" fill="#626080"/>
  <rect x="33" y="7" width="1" height="1" fill="#9de7f5"/>
</svg>
