<svg xmlns="http://www.w3.org/2000/svg" width="12" height="12" viewBox="0 0 12 12" shape-rendering="crispEdges" role="img" aria-label="Çerçevenin dokuz parçaya bölündüğü kesim çizgileri">
  <rect x="0" y="0" width="3" height="1" fill="#92afc3"/>
  <rect x="3" y="0" width="6" height="1" fill="#637980"/>
  <rect x="9" y="0" width="3" height="1" fill="#92afc3"/>
  <rect x="0" y="1" width="1" height="1" fill="#92afc3"/>
  <rect x="1" y="1" width="2" height="1" fill="#637980"/>
  <rect x="3" y="1" width="1" height="1" fill="#e3ab52"/>
  <rect x="4" y="1" width="4" height="1" fill="#182e33"/>
  <rect x="8" y="1" width="1" height="1" fill="#e3ab52"/>
  <rect x="9" y="1" width="2" height="1" fill="#637980"/>
  <rect x="11" y="1" width="1" height="1" fill="#92afc3"/>
  <rect x="0" y="2" width="1" height="1" fill="#92afc3"/>
  <rect x="1" y="2" width="2" height="1" fill="#637980"/>
  <rect x="3" y="2" width="1" height="1" fill="#e3ab52"/>
  <rect x="4" y="2" width="4" height="1" fill="#182e33"/>
  <rect x="8" y="2" width="1" height="1" fill="#e3ab52"/>
  <rect x="9" y="2" width="2" height="1" fill="#637980"/>
  <rect x="11" y="2" width="1" height="1" fill="#92afc3"/>
  <rect x="0" y="3" width="1" height="1" fill="#637980"/>
  <rect x="1" y="3" width="10" height="1" fill="#e3ab52"/>
  <rect x="11" y="3" width="1" height="1" fill="#637980"/>
  <rect x="0" y="4" width="1" height="1" fill="#637980"/>
  <rect x="1" y="4" width="2" height="1" fill="#182e33"/>
  <rect x="3" y="4" width="1" height="1" fill="#e3ab52"/>
  <rect x="4" y="4" width="4" height="1" fill="#182e33"/>
  <rect x="8" y="4" width="1" height="1" fill="#e3ab52"/>
  <rect x="9" y="4" width="2" height="1" fill="#182e33"/>
  <rect x="11" y="4" width="1" height="1" fill="#637980"/>
  <rect x="0" y="5" width="1" height="1" fill="#637980"/>
  <rect x="1" y="5" width="2" height="1" fill="#182e33"/>
  <rect x="3" y="5" width="1" height="1" fill="#e3ab52"/>
  <rect x="4" y="5" width="4" height="1" fill="#182e33"/>
  <rect x="8" y="5" width="1" height="1" fill="#e3ab52"/>
  <rect x="9" y="5" width="2" height="1" fill="#182e33"/>
  <rect x="11" y="5" width="1" height="1" fill="#637980"/>
  <rect x="0" y="6" width="1" height="1" fill="#637980"/>
  <rect x="1" y="6" width="2" height="1" fill="#182e33"/>
  <rect x="3" y="6" width="1" height="1" fill="#e3ab52"/>
  <rect x="4" y="6" width="4" height="1" fill="#182e33"/>
  <rect x="8" y="6" width="1" height="1" fill="#e3ab52"/>
  <rect x="9" y="6" width="2" height="1" fill="#182e33"/>
  <rect x="11" y="6" width="1" height="1" fill="#637980"/>
  <rect x="0" y="7" width="1" height="1" fill="#637980"/>
  <rect x="1" y="7" width="2" height="1" fill="#182e33"/>
  <rect x="3" y="7" width="1" height="1" fill="#e3ab52"/>
  <rect x="4" y="7" width="4" height="1" fill="#182e33"/>
  <rect x="8" y="7" width="1" height="1" fill="#e3ab52"/>
  <rect x="9" y="7" width="2" height="1" fill="#182e33"/>
  <rect x="11" y="7" width="1" height="1" fill="#637980"/>
  <rect x="0" y="8" width="1" height="1" fill="#637980"/>
  <rect x="1" y="8" width="10" height="1" fill="#e3ab52"/>
  <rect x="11" y="8" width="1" height="1" fill="#637980"/>
  <rect x="0" y="9" width="1" height="1" fill="#92afc3"/>
  <rect x="1" y="9" width="2" height="1" fill="#637980"/>
  <rect x="3" y="9" width="1" height="1" fill="#e3ab52"/>
  <rect x="4" y="9" width="4" height="1" fill="#182e33"/>
  <rect x="8" y="9" width="1" height="1" fill="#e3ab52"/>
  <rect x="9" y="9" width="2" height="1" fill="#637980"/>
  <rect x="11" y="9" width="1" height="1" fill="#92afc3"/>
  <rect x="0" y="10" width="1" height="1" fill="#92afc3"/>
  <rect x="1" y="10" width="2" height="1" fill="#637980"/>
  <rect x="3" y="10" width="1" height="1" fill="#e3ab52"/>
  <rect x="4" y="10" width="4" height="1" fill="#182e33"/>
  <rect x="8" y="10" width="1" height="1" fill="#e3ab52"/>
  <rect x="9" y="10" width="2" height="1" fill="#637980"/>
  <rect x="11" y="10" width="1" height="1" fill="#92afc3"/>
  <rect x="0" y="11" width="3" height="1" fill="#92afc3"/>
  <rect x="3" y="11" width="6" height="1" fill="#637980"/>
  <rect x="9" y="11" width="3" height="1" fill="#92afc3"/>
</svg>
