<svg xmlns="http://www.w3.org/2000/svg" width="37" height="7" viewBox="0 0 37 7" shape-rendering="crispEdges" role="img" aria-label="A, B, C harfleri ile Türkçe harfler yan yana">
  <rect x="18" y="0" width="3" height="1" fill="#e9dfc2"/>
  <rect x="23" y="0" width="1" height="1" fill="#e9dfc2"/>
  <rect x="26" y="0" width="1" height="1" fill="#e9dfc2"/>
  <rect x="28" y="0" width="1" height="1" fill="#e9dfc2"/>
  <rect x="34" y="0" width="1" height="1" fill="#e9dfc2"/>
  <rect x="36" y="0" width="1" height="1" fill="#e9dfc2"/>
  <rect x="0" y="1" width="3" height="1" fill="#e9dfc2"/>
  <rect x="4" y="1" width="2" height="1" fill="#e9dfc2"/>
  <rect x="8" y="1" width="3" height="1" fill="#e9dfc2"/>
  <rect x="14" y="1" width="3" height="1" fill="#e9dfc2"/>
  <rect x="18" y="1" width="3" height="1" fill="#e9dfc2"/>
  <rect x="22" y="1" width="3" height="1" fill="#e9dfc2"/>
  <rect x="26" y="1" width="3" height="1" fill="#e9dfc2"/>
  <rect x="30" y="1" width="3" height="1" fill="#e9dfc2"/>
  <rect x="34" y="1" width="1" height="1" fill="#e9dfc2"/>
  <rect x="36" y="1" width="1" height="1" fill="#e9dfc2"/>
  <rect x="0" y="2" width="1" height="1" fill="#e9dfc2"/>
  <rect x="2" y="2" width="1" height="1" fill="#e9dfc2"/>
  <rect x="4" y="2" width="1" height="1" fill="#e9dfc2"/>
  <rect x="6" y="2" width="1" height="1" fill="#e9dfc2"/>
  <rect x="8" y="2" width="1" height="1" fill="#e9dfc2"/>
  <rect x="14" y="2" width="1" height="1" fill="#e9dfc2"/>
  <rect x="18" y="2" width="1" height="1" fill="#e9dfc2"/>
  <rect x="23" y="2" width="1" height="1" fill="#e9dfc2"/>
  <rect x="26" y="2" width="1" height="1" fill="#e9dfc2"/>
  <rect x="28" y="2" width="1" height="1" fill="#e9dfc2"/>
  <rect x="30" y="2" width="1" height="1" fill="#e9dfc2"/>
  <rect x="34" y="2" width="1" height="1" fill="#e9dfc2"/>
  <rect x="36" y="2" width="1" height="1" fill="#e9dfc2"/>
  <rect x="0" y="3" width="3" height="1" fill="#e9dfc2"/>
  <rect x="4" y="3" width="2" height="1" fill="#e9dfc2"/>
  <rect x="8" y="3" width="1" height="1" fill="#e9dfc2"/>
  <rect x="14" y="3" width="1" height="1" fill="#e9dfc2"/>
  <rect x="18" y="3" width="1" height="1" fill="#e9dfc2"/>
  <rect x="20" y="3" width="1" height="1" fill="#e9dfc2"/>
  <rect x="23" y="3" width="1" height="1" fill="#e9dfc2"/>
  <rect x="26" y="3" width="1" height="1" fill="#e9dfc2"/>
  <rect x="28" y="3" width="1" height="1" fill="#e9dfc2"/>
  <rect x="30" y="3" width="3" height="1" fill="#e9dfc2"/>
  <rect x="34" y="3" width="1" height="1" fill="#e9dfc2"/>
  <rect x="36" y="3" width="1" height="1" fill="#e9dfc2"/>
  <rect x="0" y="4" width="1" height="1" fill="#e9dfc2"/>
  <rect x="2" y="4" width="1" height="1" fill="#e9dfc2"/>
  <rect x="4" y="4" width="1" height="1" fill="#e9dfc2"/>
  <rect x="6" y="4" width="1" height="1" fill="#e9dfc2"/>
  <rect x="8" y="4" width="1" height="1" fill="#e9dfc2"/>
  <rect x="14" y="4" width="1" height="1" fill="#e9dfc2"/>
  <rect x="18" y="4" width="1" height="1" fill="#e9dfc2"/>
  <rect x="20" y="4" width="1" height="1" fill="#e9dfc2"/>
  <rect x="23" y="4" width="1" height="1" fill="#e9dfc2"/>
  <rect x="26" y="4" width="1" height="1" fill="#e9dfc2"/>
  <rect x="28" y="4" width="1" height="1" fill="#e9dfc2"/>
  <rect x="32" y="4" width="1" height="1" fill="#e9dfc2"/>
  <rect x="34" y="4" width="1" height="1" fill="#e9dfc2"/>
  <rect x="36" y="4" width="1" height="1" fill="#e9dfc2"/>
  <rect x="0" y="5" width="1" height="1" fill="#e9dfc2"/>
  <rect x="2" y="5" width="1" height="1" fill="#e9dfc2"/>
  <rect x="4" y="5" width="2" height="1" fill="#e9dfc2"/>
  <rect x="8" y="5" width="3" height="1" fill="#e9dfc2"/>
  <rect x="14" y="5" width="3" height="1" fill="#e9dfc2"/>
  <rect x="18" y="5" width="3" height="1" fill="#e9dfc2"/>
  <rect x="22" y="5" width="3" height="1" fill="#e9dfc2"/>
  <rect x="26" y="5" width="3" height="1" fill="#e9dfc2"/>
  <rect x="30" y="5" width="3" height="1" fill="#e9dfc2"/>
  <rect x="34" y="5" width="3" height="1" fill="#e9dfc2"/>
  <rect x="15" y="6" width="1" height="1" fill="#e9dfc2"/>
  <rect x="31" y="6" width="1" height="1" fill="#e9dfc2"/>
</svg>
